<mxfile host="65bd71144e">
    <diagram id="y-pCycuawTWCVEpbna97" name="Page-1">
        <mxGraphModel dx="614" dy="393" grid="1" gridSize="10" guides="1" tooltips="1" connect="1" arrows="1" fold="1" page="1" pageScale="1" pageWidth="850" pageHeight="1100" math="1" shadow="0">
            <root>
                <mxCell id="0"/>
                <mxCell id="1" parent="0"/>
                <mxCell id="43" value="" style="rounded=0;whiteSpace=wrap;html=1;dashed=1;fontSize=16;fillColor=#FFFFFF;strokeColor=none;" vertex="1" parent="1">
                    <mxGeometry x="20" y="20" width="600" height="330" as="geometry"/>
                </mxCell>
                <mxCell id="2" value="" style="shape=parallelogram;perimeter=parallelogramPerimeter;whiteSpace=wrap;html=1;fixedSize=1;direction=north;dashed=1;fillColor=#FFFF00;" vertex="1" parent="1">
                    <mxGeometry x="80" y="200" width="120" height="90" as="geometry"/>
                </mxCell>
                <mxCell id="6" value="" style="endArrow=none;dashed=1;html=1;" edge="1" parent="1">
                    <mxGeometry width="50" height="50" relative="1" as="geometry">
                        <mxPoint x="30" y="240" as="sourcePoint"/>
                        <mxPoint x="280" y="40" as="targetPoint"/>
                    </mxGeometry>
                </mxCell>
                <mxCell id="7" value="" style="endArrow=none;dashed=1;html=1;" edge="1" parent="1">
                    <mxGeometry width="50" height="50" relative="1" as="geometry">
                        <mxPoint x="80" y="320" as="sourcePoint"/>
                        <mxPoint x="400" y="60" as="targetPoint"/>
                    </mxGeometry>
                </mxCell>
                <mxCell id="8" value="" style="endArrow=none;dashed=1;html=1;" edge="1" parent="1">
                    <mxGeometry width="50" height="50" relative="1" as="geometry">
                        <mxPoint x="120" y="350" as="sourcePoint"/>
                        <mxPoint x="400" y="130" as="targetPoint"/>
                    </mxGeometry>
                </mxCell>
                <mxCell id="10" value="" style="shape=parallelogram;perimeter=parallelogramPerimeter;whiteSpace=wrap;html=1;fixedSize=1;direction=north;dashed=1;fillColor=#FFFF00;" vertex="1" parent="1">
                    <mxGeometry x="380" y="200" width="120" height="90" as="geometry"/>
                </mxCell>
                <mxCell id="11" value="" style="endArrow=none;dashed=1;html=1;exitX=1;exitY=0;exitDx=0;exitDy=0;" edge="1" parent="1">
                    <mxGeometry width="50" height="50" relative="1" as="geometry">
                        <mxPoint x="380" y="200" as="sourcePoint"/>
                        <mxPoint x="480" y="120" as="targetPoint"/>
                    </mxGeometry>
                </mxCell>
                <mxCell id="12" value="" style="endArrow=none;dashed=1;html=1;exitX=1;exitY=0;exitDx=0;exitDy=0;" edge="1" parent="1">
                    <mxGeometry width="50" height="50" relative="1" as="geometry">
                        <mxPoint x="500" y="220" as="sourcePoint"/>
                        <mxPoint x="600" y="140" as="targetPoint"/>
                    </mxGeometry>
                </mxCell>
                <mxCell id="13" value="" style="endArrow=none;dashed=1;html=1;exitX=1;exitY=0;exitDx=0;exitDy=0;" edge="1" parent="1">
                    <mxGeometry width="50" height="50" relative="1" as="geometry">
                        <mxPoint x="500" y="290" as="sourcePoint"/>
                        <mxPoint x="600" y="210" as="targetPoint"/>
                    </mxGeometry>
                </mxCell>
                <mxCell id="14" value="" style="endArrow=none;dashed=1;html=1;" edge="1" parent="1">
                    <mxGeometry width="50" height="50" relative="1" as="geometry">
                        <mxPoint x="480" y="120" as="sourcePoint"/>
                        <mxPoint x="600" y="140" as="targetPoint"/>
                    </mxGeometry>
                </mxCell>
                <mxCell id="15" value="" style="endArrow=none;dashed=1;html=1;" edge="1" parent="1">
                    <mxGeometry width="50" height="50" relative="1" as="geometry">
                        <mxPoint x="600" y="140" as="sourcePoint"/>
                        <mxPoint x="600" y="210" as="targetPoint"/>
                    </mxGeometry>
                </mxCell>
                <mxCell id="16" value="" style="endArrow=none;dashed=1;html=1;entryX=0.25;entryY=0;entryDx=0;entryDy=0;" edge="1" parent="1" target="2">
                    <mxGeometry width="50" height="50" relative="1" as="geometry">
                        <mxPoint x="40" y="300" as="sourcePoint"/>
                        <mxPoint x="410" y="70" as="targetPoint"/>
                    </mxGeometry>
                </mxCell>
                <mxCell id="20" value="" style="endArrow=classic;html=1;" edge="1" parent="1">
                    <mxGeometry width="50" height="50" relative="1" as="geometry">
                        <mxPoint x="70" y="188" as="sourcePoint"/>
                        <mxPoint x="240" y="58" as="targetPoint"/>
                    </mxGeometry>
                </mxCell>
                <mxCell id="21" value="" style="endArrow=classic;html=1;" edge="1" parent="1">
                    <mxGeometry width="50" height="50" relative="1" as="geometry">
                        <mxPoint x="340" y="210" as="sourcePoint"/>
                        <mxPoint x="510" y="80" as="targetPoint"/>
                    </mxGeometry>
                </mxCell>
                <mxCell id="22" value="`\prod_{\lambda^\prime \ne \lambda} X_{\lambda^\prime}`" style="text;html=1;strokeColor=none;fillColor=none;align=center;verticalAlign=middle;whiteSpace=wrap;rounded=0;dashed=1;fontSize=16;" vertex="1" parent="1">
                    <mxGeometry x="150" y="60" width="60" height="30" as="geometry"/>
                </mxCell>
                <mxCell id="24" value="`\prod_{\lambda^\prime \ne \lambda} X_{\lambda^\prime}`" style="text;html=1;strokeColor=none;fillColor=none;align=center;verticalAlign=middle;whiteSpace=wrap;rounded=0;dashed=1;fontSize=16;" vertex="1" parent="1">
                    <mxGeometry x="425" y="70" width="60" height="30" as="geometry"/>
                </mxCell>
                <mxCell id="25" value="" style="endArrow=classic;html=1;" edge="1" parent="1">
                    <mxGeometry width="50" height="50" relative="1" as="geometry">
                        <mxPoint x="70" y="188" as="sourcePoint"/>
                        <mxPoint x="190" y="208" as="targetPoint"/>
                    </mxGeometry>
                </mxCell>
                <mxCell id="26" value="" style="endArrow=classic;html=1;" edge="1" parent="1">
                    <mxGeometry width="50" height="50" relative="1" as="geometry">
                        <mxPoint x="70" y="188" as="sourcePoint"/>
                        <mxPoint x="70" y="268" as="targetPoint"/>
                    </mxGeometry>
                </mxCell>
                <mxCell id="27" value="" style="endArrow=classic;html=1;" edge="1" parent="1">
                    <mxGeometry width="50" height="50" relative="1" as="geometry">
                        <mxPoint x="370" y="189" as="sourcePoint"/>
                        <mxPoint x="490" y="209" as="targetPoint"/>
                    </mxGeometry>
                </mxCell>
                <mxCell id="28" value="" style="endArrow=classic;html=1;" edge="1" parent="1">
                    <mxGeometry width="50" height="50" relative="1" as="geometry">
                        <mxPoint x="370" y="189" as="sourcePoint"/>
                        <mxPoint x="370" y="269" as="targetPoint"/>
                    </mxGeometry>
                </mxCell>
                <mxCell id="30" value="" style="curved=1;endArrow=classic;html=1;fontSize=16;strokeColor=#FF9999;" edge="1" parent="1">
                    <mxGeometry width="50" height="50" relative="1" as="geometry">
                        <mxPoint x="190" y="154" as="sourcePoint"/>
                        <mxPoint x="70" y="254" as="targetPoint"/>
                        <Array as="points">
                            <mxPoint x="70" y="224"/>
                            <mxPoint x="150" y="234"/>
                        </Array>
                    </mxGeometry>
                </mxCell>
                <mxCell id="32" value="" style="curved=1;endArrow=classic;html=1;fontSize=16;strokeColor=#FF9999;" edge="1" parent="1">
                    <mxGeometry width="50" height="50" relative="1" as="geometry">
                        <mxPoint x="190" y="154" as="sourcePoint"/>
                        <mxPoint x="170" y="204" as="targetPoint"/>
                        <Array as="points">
                            <mxPoint x="160" y="174"/>
                            <mxPoint x="240" y="184"/>
                        </Array>
                    </mxGeometry>
                </mxCell>
                <mxCell id="33" value="" style="curved=1;endArrow=classic;html=1;fontSize=16;strokeColor=#FF9999;" edge="1" parent="1">
                    <mxGeometry width="50" height="50" relative="1" as="geometry">
                        <mxPoint x="489" y="155" as="sourcePoint"/>
                        <mxPoint x="369" y="255" as="targetPoint"/>
                        <Array as="points">
                            <mxPoint x="369" y="225"/>
                            <mxPoint x="449" y="235"/>
                        </Array>
                    </mxGeometry>
                </mxCell>
                <mxCell id="34" value="" style="curved=1;endArrow=classic;html=1;fontSize=16;strokeColor=#FF9999;" edge="1" parent="1">
                    <mxGeometry width="50" height="50" relative="1" as="geometry">
                        <mxPoint x="489" y="155" as="sourcePoint"/>
                        <mxPoint x="469" y="205" as="targetPoint"/>
                        <Array as="points">
                            <mxPoint x="459" y="175"/>
                            <mxPoint x="539" y="185"/>
                        </Array>
                    </mxGeometry>
                </mxCell>
                <mxCell id="35" value="`X_\lambda`" style="text;html=1;strokeColor=none;fillColor=none;align=center;verticalAlign=middle;whiteSpace=wrap;rounded=0;dashed=1;fontSize=16;" vertex="1" parent="1">
                    <mxGeometry x="170" y="140" width="60" height="30" as="geometry"/>
                </mxCell>
                <mxCell id="36" value="`X_\lambda`" style="text;html=1;strokeColor=none;fillColor=none;align=center;verticalAlign=middle;whiteSpace=wrap;rounded=0;dashed=1;fontSize=16;" vertex="1" parent="1">
                    <mxGeometry x="470" y="140" width="60" height="30" as="geometry"/>
                </mxCell>
                <mxCell id="37" value="`O_\lambda`" style="text;html=1;strokeColor=none;fillColor=none;align=center;verticalAlign=middle;whiteSpace=wrap;rounded=0;dashed=1;fontSize=16;" vertex="1" parent="1">
                    <mxGeometry x="110" y="240" width="60" height="30" as="geometry"/>
                </mxCell>
                <mxCell id="38" value="`O_\lambda`" style="text;html=1;strokeColor=none;fillColor=none;align=center;verticalAlign=middle;whiteSpace=wrap;rounded=0;dashed=1;fontSize=16;" vertex="1" parent="1">
                    <mxGeometry x="410" y="240" width="60" height="30" as="geometry"/>
                </mxCell>
                <mxCell id="39" value="`\pi_\lambda^{-1}(O_\lambda)`" style="text;html=1;strokeColor=none;fillColor=none;align=center;verticalAlign=middle;whiteSpace=wrap;rounded=0;dashed=1;fontSize=16;" vertex="1" parent="1">
                    <mxGeometry x="250" y="100" width="60" height="30" as="geometry"/>
                </mxCell>
                <mxCell id="40" value="`\bigcap_{\lambda \in \Lambda}\pi_\lambda^{-1}(O_\lambda)`" style="text;html=1;strokeColor=none;fillColor=none;align=center;verticalAlign=middle;whiteSpace=wrap;rounded=0;dashed=1;fontSize=16;" vertex="1" parent="1">
                    <mxGeometry x="540" y="180" width="60" height="30" as="geometry"/>
                </mxCell>
                <mxCell id="41" value="cylinder" style="text;html=1;strokeColor=none;fillColor=none;align=center;verticalAlign=middle;whiteSpace=wrap;rounded=0;dashed=1;fontSize=16;" vertex="1" parent="1">
                    <mxGeometry x="190" y="290" width="60" height="30" as="geometry"/>
                </mxCell>
                <mxCell id="42" value="box" style="text;html=1;strokeColor=none;fillColor=none;align=center;verticalAlign=middle;whiteSpace=wrap;rounded=0;dashed=1;fontSize=16;" vertex="1" parent="1">
                    <mxGeometry x="490" y="290" width="60" height="30" as="geometry"/>
                </mxCell>
            </root>
        </mxGraphModel>
    </diagram>
</mxfile>
